<svg width="960" height="420" viewBox="0 0 960 420" fill="none" xmlns="http://www.w3.org/2000/svg">
  <defs>
    <linearGradient id="bg" x1="0" y1="0" x2="960" y2="420" gradientUnits="userSpaceOnUse">
      <stop offset="0" stop-color="#2A1E16"/>
      <stop offset="1" stop-color="#4D3425"/>
    </linearGradient>
    <linearGradient id="shelf" x1="0" y1="0" x2="0" y2="1">
      <stop offset="0" stop-color="#C7905A"/>
      <stop offset="1" stop-color="#8D5F36"/>
    </linearGradient>
  </defs>
  <rect width="960" height="420" rx="22" fill="url(#bg)"/>
  <rect x="60" y="110" width="840" height="18" rx="8" fill="url(#shelf)"/>
  <rect x="60" y="210" width="840" height="18" rx="8" fill="url(#shelf)"/>
  <rect x="60" y="310" width="840" height="18" rx="8" fill="url(#shelf)"/>

  <rect x="92" y="42" width="38" height="68" rx="5" fill="#D45D42"/>
  <rect x="138" y="28" width="44" height="82" rx="5" fill="#5F8D7A"/>
  <rect x="190" y="46" width="34" height="64" rx="5" fill="#BFA36E"/>
  <rect x="232" y="36" width="48" height="74" rx="5" fill="#7A6CB3"/>
  <rect x="288" y="52" width="36" height="58" rx="5" fill="#E1B05A"/>

  <rect x="132" y="136" width="42" height="74" rx="5" fill="#C1604A"/>
  <rect x="182" y="144" width="32" height="66" rx="5" fill="#5A8AA8"/>
  <rect x="222" y="130" width="46" height="80" rx="5" fill="#8C735C"/>
  <rect x="276" y="148" width="30" height="62" rx="5" fill="#CFA46D"/>

  <rect x="640" y="132" width="190" height="120" rx="12" fill="#2B2F3A"/>
  <rect x="654" y="148" width="162" height="84" rx="8" fill="#131822"/>
  <path d="M720 190h32M736 174v32" stroke="#22C9C0" stroke-width="6" stroke-linecap="round"/>

  <circle cx="540" cy="252" r="72" fill="#161A22"/>
  <path d="M512 252h56M540 224v56" stroke="#FF8A00" stroke-width="9" stroke-linecap="round"/>

  <rect x="96" y="234" width="40" height="76" rx="5" fill="#4C7D65"/>
  <rect x="144" y="248" width="34" height="62" rx="5" fill="#A8845D"/>
  <rect x="186" y="226" width="50" height="84" rx="5" fill="#C65E50"/>
  <rect x="244" y="238" width="38" height="72" rx="5" fill="#7C78B9"/>
  <rect x="290" y="244" width="36" height="66" rx="5" fill="#D3A455"/>

  <text x="610" y="95" fill="#F5E9D9" font-family="Arial" font-size="30" font-weight="700">Bookstore Shelf</text>
</svg>
